<svg id="Layer_1" data-name="Layer 1" xmlns="http://www.w3.org/2000/svg" viewBox="0 0 311.56 58.65"><defs><style>.cls-1{fill:none;}.cls-2,.cls-5{fill:#d1d3d4;}.cls-3,.cls-4{fill:#00aeef;}.cls-4{stroke:#00aeef;}.cls-4,.cls-5{stroke-miterlimit:10;stroke-width:2.75px;}.cls-5{stroke:#d1d3d4;}</style></defs><title>Konnect_2</title><polygon class="cls-1" points="64.61 33.83 64.61 49.57 78.25 49.53 64.61 33.83"/><polygon class="cls-2" points="52.01 57.28 64.61 57.28 64.61 49.57 52.01 49.6 52.01 57.28"/><polygon class="cls-3" points="78.25 47.53 95.43 47.48 76.6 26.2 98.85 0 83.57 0 64.61 22.58 64.61 0 52.01 0 52.01 47.6 64.61 47.57 64.61 31.83 78.25 47.53"/><polygon class="cls-2" points="84.98 57.28 102.33 57.28 95.43 49.48 78.25 49.53 84.98 57.28"/><path class="cls-1" d="M174.57,46.65c-3.18,0-6.3,2.94-6.3,6v2.13h11.82V52.65C180.09,49.59,178,46.65,174.57,46.65Z" transform="translate(-10.85 -13.09)"/><path class="cls-1" d="M252,45.27c-3.66,0-5.7,2.16-5.88,5h11.7A5.46,5.46,0,0,0,252,45.27Z" transform="translate(-10.85 -13.09)"/><path class="cls-1" d="M141.51,54.69a7.17,7.17,0,1,0-14.34,0v.09h14.34Z" transform="translate(-10.85 -13.09)"/><path class="cls-1" d="M134.37,61.89a6.91,6.91,0,0,0,7.14-7.11H127.17A6.85,6.85,0,0,0,134.37,61.89Z" transform="translate(-10.85 -13.09)"/><path class="cls-1" d="M214.23,46.65c-3.18,0-6.3,2.94-6.3,6v2.13h11.82V52.65C219.75,49.59,217.65,46.65,214.23,46.65Z" transform="translate(-10.85 -13.09)"/><path class="cls-2" d="M134.37,61.89a6.85,6.85,0,0,1-7.2-7.11H115.89c0,9.43,7.47,16.17,18.54,16.17,10.59,0,18.31-6.74,18.35-16.17H141.51A6.91,6.91,0,0,1,134.37,61.89Z" transform="translate(-10.85 -13.09)"/><path class="cls-3" d="M134.43,36.38c-10.38,0-18.54,6.71-18.54,16.31v.09h11.28v-.09a7.17,7.17,0,1,1,14.34,0v.09h11.27s0-.06,0-.09C152.79,43.09,144.63,36.38,134.43,36.38Z" transform="translate(-10.85 -13.09)"/><rect class="cls-2" x="169.24" y="41.7" width="10.62" height="15.27"/><rect class="cls-2" x="146.8" y="41.7" width="10.62" height="15.27"/><path class="cls-3" d="M177.21,36.38a12.73,12.73,0,0,0-8.82,4.13h-.12V37.27H157.65V52.78h10.62V50.65c0-3.06,3.12-6,6.3-6,3.42,0,5.52,2.94,5.52,6v2.13h10.62v-5C190.71,39.19,182.85,36.38,177.21,36.38Z" transform="translate(-10.85 -13.09)"/><rect class="cls-2" x="186.46" y="41.7" width="10.62" height="15.27"/><rect class="cls-2" x="208.9" y="41.7" width="10.62" height="15.27"/><path class="cls-3" d="M216.87,36.38a12.73,12.73,0,0,0-8.82,4.13h-.12V37.27H197.31V52.78h10.62V50.65c0-3.06,3.12-6,6.3-6,3.42,0,5.52,2.94,5.52,6v2.13h10.62v-5C230.37,39.19,222.51,36.38,216.87,36.38Z" transform="translate(-10.85 -13.09)"/><path class="cls-2" d="M251.67,71c6.84,0,12.48-2.22,16-8L260,59.07c-2.58,2.76-4.08,3.42-7.5,3.42-2.7,0-6.66-1.62-6.66-6.36h22.32a11.27,11.27,0,0,0,.06-1.35H234.75C234.8,63.68,242.4,71,251.67,71Z" transform="translate(-10.85 -13.09)"/><path class="cls-3" d="M251.67,36.38c-9.3,0-16.92,7.31-16.92,16.31v.09h33.42v-.09C268.17,41.9,261,36.38,251.67,36.38Zm-5.58,11.87c.18-2.82,2.22-5,5.88-5a5.46,5.46,0,0,1,5.82,5Z" transform="translate(-10.85 -13.09)"/><path class="cls-2" d="M288,71c6.84,0,10.32-2.76,10.32-2.76l-3.6-7.38a9.36,9.36,0,0,1-5.16,1.44,7.43,7.43,0,0,1-7.31-7.47H270.93C271,63.77,279.1,71,288,71Z" transform="translate(-10.85 -13.09)"/><path class="cls-3" d="M289.53,45.07a9.36,9.36,0,0,1,5.16,1.44l3.6-7.26s-3.48-2.87-10.32-2.87c-8.94,0-17,7.31-17,16.37v0h11.29a.76.76,0,0,1,0-.15A7.44,7.44,0,0,1,289.53,45.07Z" transform="translate(-10.85 -13.09)"/><path class="cls-2" d="M317.13,61.41c-1.68,0-2.4-1.38-2.4-4.26V54.78H304.11v4.41c0,5.46,2,11.76,10.5,11.76a17.57,17.57,0,0,0,7.8-1.92l-2.64-8.58A5,5,0,0,1,317.13,61.41Z" transform="translate(-10.85 -13.09)"/><polygon class="cls-3" points="303.88 32.29 310.36 32.29 310.36 24.19 303.88 24.19 303.88 12.73 293.26 12.73 293.26 24.19 288.82 24.19 288.82 32.29 293.26 32.29 293.26 39.7 303.88 39.7 303.88 32.29"/><polygon class="cls-1" points="23.7 40.16 25.05 42.56 36.24 42.56 37.56 40.16 23.7 40.16"/><polygon class="cls-4" points="8.7 30.54 5.97 25.71 14.38 10.8 31.04 10.8 28.75 6.9 12.18 6.9 1.58 25.71 12.18 44.52 14.92 44.52 7.87 32.01 8.7 30.54"/><polygon class="cls-4" points="30.94 40.62 14.38 40.62 8.7 30.54 7.87 32.01 14.92 44.52 28.79 44.52 30.94 40.62"/><polygon class="cls-5" points="40.42 33.64 43.14 38.48 34.69 53.37 18.03 53.33 20.3 57.23 36.88 57.28 47.53 38.49 36.98 19.66 34.23 19.65 41.25 32.18 40.42 33.64"/><polygon class="cls-5" points="18.21 23.5 34.77 23.55 40.42 33.64 41.25 32.18 34.23 19.65 20.37 19.61 18.21 23.5"/><polygon class="cls-1" points="17.61 50.26 18.95 52.67 30.14 52.71 31.47 50.31 17.61 50.26"/></svg>